<svg xmlns="http://www.w3.org/2000/svg" xmlns:xlink="http://www.w3.org/1999/xlink" x="0" y="0" width="192.33334350585938" height="75.66667175292969" style="
        width:192.33334350585938px;
        height:75.66667175292969px;
        background: transparent;
        fill: none;
">
        
        
        <svg xmlns="http://www.w3.org/2000/svg" class="role-diagram-draw-area"><g class="shapes-region" style="stroke: black; fill: none;"><g class="composite-shape"><path class="real" d=" M7.89,53.17 L48.19,53.17 L48.19,57.33 L7.89,57.33 Z" style="stroke-width: 1; stroke: rgb(255, 255, 255); fill: none; fill-opacity: 1; stroke-opacity: 1;"/></g><g class="composite-shape"><path class="real" d=" M11.27,51.43 L17.57,51.43 L17.57,53.17 L11.27,53.17 Z" style="stroke-width: 1; stroke: rgb(255, 255, 255); fill: none; fill-opacity: 1; stroke-opacity: 1;"/></g><g class="composite-shape"><path class="real" d=" M13.08,35.85 L15.77,35.85 L15.77,51.4 L13.08,51.4 Z" style="stroke-width: 1; stroke: rgb(255, 255, 255); fill: none; fill-opacity: 1; stroke-opacity: 1;"/></g><g class="composite-shape"><path class="real" d=" M11.27,34.08 L17.57,34.08 L17.57,35.82 L11.27,35.82 Z" style="stroke-width: 1; stroke: rgb(255, 255, 255); fill: none; fill-opacity: 1; stroke-opacity: 1;"/></g><g class="arrow-line"><path class="connection real" stroke-dasharray="" d="  M7.83,34.08 L7.83,30.26" style="stroke: rgb(255, 255, 255); stroke-width: 1; fill: none; fill-opacity: 1; stroke-opacity: 1;"/></g><g class="arrow-line"><path class="connection real" stroke-dasharray="" d="  M7.83,30.26 L27.85,19.33 L48.33,30.26" style="stroke: rgb(255, 255, 255); stroke-width: 1; fill: none; fill-opacity: 1; stroke-opacity: 1;"/></g><g class="arrow-line"><path class="connection real" stroke-dasharray="" d="  M48.33,34.08 L48.33,30.26" style="stroke: rgb(255, 255, 255); stroke-width: 1; fill: none; fill-opacity: 1; stroke-opacity: 1;"/></g><g class="arrow-line"><path class="connection real" stroke-dasharray="" d="  M7.83,34.08 L48.33,34.08" style="stroke: rgb(255, 255, 255); stroke-width: 1; fill: none; fill-opacity: 1; stroke-opacity: 1;"/></g><g class="composite-shape"><path class="real" d=" M24.7,51.43 L31,51.43 L31,53.17 L24.7,53.17 Z" style="stroke-width: 1; stroke: rgb(255, 255, 255); fill: none; fill-opacity: 1; stroke-opacity: 1;"/></g><g class="composite-shape"><path class="real" d=" M26.51,35.85 L29.19,35.85 L29.19,51.4 L26.51,51.4 Z" style="stroke-width: 1; stroke: rgb(255, 255, 255); fill: none; fill-opacity: 1; stroke-opacity: 1;"/></g><g class="composite-shape"><path class="real" d=" M24.7,34.08 L31,34.08 L31,35.82 L24.7,35.82 Z" style="stroke-width: 1; stroke: rgb(255, 255, 255); fill: none; fill-opacity: 1; stroke-opacity: 1;"/></g><g class="composite-shape"><path class="real" d=" M38.29,51.43 L44.59,51.43 L44.59,53.17 L38.29,53.17 Z" style="stroke-width: 1; stroke: rgb(255, 255, 255); fill: none; fill-opacity: 1; stroke-opacity: 1;"/></g><g class="composite-shape"><path class="real" d=" M40.09,35.85 L42.78,35.85 L42.78,51.4 L40.09,51.4 Z" style="stroke-width: 1; stroke: rgb(255, 255, 255); fill: none; fill-opacity: 1; stroke-opacity: 1;"/></g><g class="composite-shape"><path class="real" d=" M38.29,34.08 L44.59,34.08 L44.59,35.82 L38.29,35.82 Z" style="stroke-width: 1; stroke: rgb(255, 255, 255); fill: none; fill-opacity: 1; stroke-opacity: 1;"/></g><g/></g><g/><g/><g/></svg>
        <svg xmlns="http://www.w3.org/2000/svg" xmlns:xlink="http://www.w3.org/1999/xlink" width="191" height="74.33333587646484" style="width:191px;height:74.33333587646484px;font-family:Asana-Math, Asana;background:transparent;"><g><g><g><text x="54.66668701171875" y="29" style="white-space:pre;stroke:none;fill:rgb(255,255,255);fill-opacity:1;font-size:24.001px;font-family:&quot;Courier New&quot;, Courier, monospace;font-weight:400;font-style:normal;dominant-baseline:text-before-edge;text-decoration:none solid rgb(255, 255, 255);">FAKTORING</text></g></g></g></svg>
</svg>
